# xmcd
#
# Track frame offsets: 
#        150
#        64685
#        81745
#        100345
#        117017
#        130090
#        146990
#        160057
#        176717
#        188740
#        209070
#        224472
#        238605
#
# Disc length: 3419 seconds
#
# Revision: 0
# Processed by: cddbd v1.5.2PL0 Copyright (c) Steve Scherf et al.
# Submitted via: ExactAudioCopy v0.95b3
#
DISCID=c80d590d
DTITLE=Cordle, Jackson and Salley - Lonesome Cafe
DYEAR=2003
DGENRE=Bluegrass
TTITLE0=Greatest Hits and Favorite Cuts Medley
TTITLE1=Lonesome Cafe
TTITLE2=Black Diamond Strings
TTITLE3=Paper and Pen
TTITLE4=The Right Hand of Fellowship
TTITLE5=My Girl Friday
TTITLE6=It's Not What You Know (It's Who You Know)
TTITLE7=The Hands Of Time
TTITLE8=Little Mountain Church House
TTITLE9=Saving Grace
TTITLE10=Down The Road To Gloryland
TTITLE11=You Don't Have To Go Home
TTITLE12=Fit For a King
EXTD=
EXTT0=
EXTT1=
EXTT2=
EXTT3=
EXTT4=
EXTT5=
EXTT6=
EXTT7=
EXTT8=
EXTT9=
EXTT10=
EXTT11=
EXTT12=
PLAYORDER=
